<svg xmlns="http://www.w3.org/2000/svg" xmlns:xlink="http://www.w3.org/1999/xlink" fill="#fff" version="1.1" viewBox="0 0 206 46"><title>Group 15</title><desc>Created with Sketch.</desc><g><path d="m0 11.4c-.2 4 2.7 5.7 6.6 5.7 5.8 0 6.2-3.5 6.2-4.7 0-2.7-2-3.7-4.2-4.3l-4-1c-1.3-.3-2.4-.9-2.4-2.5 0-2.5 2-3.3 4.1-3.3 2.3 0 4.4 1.3 4.5 3.8h1.6c-.1-3.3-2.9-5.1-6.1-5.1-4.7 0-5.7 3-5.7 4.6 0 2.5 1.8 3.5 3.7 4l3.7.9c1.5.4 3.4 1.1 3.4 3 0 2.4-2.7 3.3-4.4 3.3-3 0-5.4-1-5.4-4.4zm24.6-.2c.1-3.3-1.4-6.7-5.2-6.7s-5.4 3.2-5.4 6.2c0 3.4 1.6 6.2 5.4 6.2 3 0 4.5-1.6 5.2-4.2h-1.6c-.3 1.8-1.9 3.1-3.7 3-2.8 0-3.9-2.5-3.9-4.7zm-9.2-1.2c.3-2.1 1.5-4.2 3.9-4.2 2.3 0 3.7 2 3.8 4.2zm20.6-1.4c-.3-2.7-2.3-4-4.8-4-3.7 0-5.6 2.9-5.6 6.2 0 3.4 2 6.2 5.6 6.2 2.7 0 4.5-1.8 4.9-4.6h-1.4c-.1 1.9-1.6 3.4-3.5 3.4-2.8 0-4.2-2.5-4.2-5s1.4-5.1 4.2-5.1c1.7-.1 3.2 1.2 3.3 2.8h1.5zm11.3-3.7h-1.5v6.2c0 2.4-1.1 4.7-3.5 4.7-2.3 0-3.1-1.1-3.2-3.3v-7.6h-1.5v7.7c0 2.8 1.2 4.5 4.2 4.5 1.7.1 3.3-.9 4.1-2.5h.1v2.1h1.3zm2.3 11.8h1.5v-6.3c-.1-2.2 1.6-4.1 3.8-4.2h.6v-1.5c-2-.1-3.8 1.1-4.5 3h-.1v-2.8h-1.3zm6.9 0h1.5v-11.8h-1.5zm0-14.1h1.5v-2.3h-1.5zm6.1-1.3h-1.5v3.5h-2.1v1.2h2.1v8.1c0 2 .6 2.6 2.6 2.6.4 0 .8-.1 1.3-.1v-1.3c-.4.1-.8.1-1.3.1-1-.1-1.2-.6-1.2-1.6v-7.8h2.4v-1.2h-2.4zm8 15.4-.5 1.3c-.5 1.1-.8 1.8-2.1 1.8-.3 0-.7-.1-1-.1v1.3c.3.1.5.1 1.1.1 1.8 0 2.3-.6 3.2-2.6l5.2-13.7h-1.5l-3.7 10.1-4-10.1h-1.5zm26.9-11.4c-.4-3.5-3.5-5.3-6.6-5.3-5.2 0-7.8 4-7.8 8.5s2.6 8.5 7.8 8.5c3.8 0 6.4-2.6 6.8-6.6h-1.6c-.3 2.9-2.2 5.2-5.2 5.2-4.4 0-6.2-3.7-6.2-7.2 0-3.6 1.8-7.2 6.2-7.2 2.4-.1 4.6 1.6 5 4zm12 5.9c.1-3.3-1.4-6.7-5.2-6.7s-5.4 3.2-5.4 6.2c0 3.4 1.6 6.2 5.4 6.2 3 0 4.5-1.6 5.2-4.2h-1.5c-.3 1.8-1.9 3.1-3.7 3-2.8 0-3.9-2.5-3.9-4.7zm-9.2-1.2c.3-2.1 1.5-4.2 3.9-4.2 2.3 0 3.7 2 3.8 4.2zm10.8 6.7h1.4v-6.9c.1-2.3 1.5-4 3.7-4 2.3 0 3 1.5 3 3.6v7.4h1.5v-7.7c0-2.8-1-4.5-4.4-4.5-1.6-.1-3.1.9-3.8 2.4h-.1v-2h-1.4zm14-15.4h-1.5v3.5h-2.1v1.2h2.1v8.1c0 2 .6 2.6 2.6 2.6.4 0 .8-.1 1.3-.1v-1.3c-.4.1-.8.1-1.3.1-1-.1-1.2-.6-1.2-1.6v-7.8h2.4v-1.2h-2.4zm3.9 15.4h1.4v-6.3c-.1-2.2 1.6-4.1 3.8-4.2h.6v-1.5c-2-.1-3.8 1.1-4.5 3h-.1v-2.8h-1.2zm16.5-5.5c.1-3.3-1.4-6.7-5.2-6.7s-5.4 3.2-5.4 6.2c0 3.4 1.6 6.2 5.4 6.2 3 0 4.5-1.6 5.2-4.2h-1.5c-.3 1.8-1.9 3.1-3.7 3-2.8 0-3.9-2.5-3.9-4.7zm-9.1-1.2c.3-2.1 1.5-4.2 3.9-4.2 2.3 0 3.7 2 3.8 4.2z" transform="translate(0 46.984) translate(59.761 -22.158)"/><path d="m0 16.7h1.6v-13.9h.1l9.5 13.9h1.8v-16.4h-1.6v13.9h-.1l-9.5-13.9h-1.8zm23.2-4.6c0 2.3-2 3.7-4.2 3.7-1.4.1-2.6-.9-2.6-2.3 0-2.3 3-2.3 5.5-2.7.4-.1 1-.2 1.2-.5h.1zm-6.3-3.6c.1-2 1.4-2.8 3.2-2.8 1.7 0 3.1.5 3.1 2.5 0 1.3-.7 1.5-1.8 1.6-3.2.4-6.4.5-6.4 3.8 0 2.4 1.8 3.5 4 3.5 1.8.1 3.5-.8 4.3-2.4h.1c0 1.3.3 2.1 1.7 2.1.3 0 .6 0 .9-.1v-1.2c-.1.1-.3.1-.4.1-.6 0-.8-.3-.8-.9v-6.4c0-3.2-2.3-3.8-4.4-3.8-2.7 0-4.7 1.2-4.8 4zm12.3-7.2h-1.5v3.5h-2.1v1.2h2.1v8.1c0 2 .6 2.7 2.6 2.7.4 0 .8-.1 1.3-.1v-1.3c-.4.1-.8.1-1.3.1-1-.1-1.2-.6-1.2-1.6v-7.9h2.4v-1.2h-2.4zm3.7 15.4h1.5v-11.8h-1.5zm0-14.1h1.5v-2.3h-1.5zm8.8 1.9c-3.7 0-5.6 2.9-5.6 6.2s2 6.3 5.6 6.3 5.6-2.9 5.6-6.2-1.9-6.3-5.6-6.3m0 1.2c2.8 0 4.2 2.5 4.2 5s-1.4 5-4.2 5-4.2-2.5-4.2-5 1.4-5 4.2-5m7.4 11h1.5v-6.9c.1-2.3 1.4-4 3.7-4s3 1.5 3 3.6v7.4h1.5v-7.7c0-2.8-1-4.5-4.4-4.5-1.6-.1-3.1.9-3.8 2.4h-.1v-2h-1.4zm19.5-4.6c0 2.3-2 3.7-4.2 3.7-1.4.1-2.6-.9-2.6-2.3 0-2.3 3-2.3 5.5-2.7.4-.1 1-.2 1.2-.5h.1zm-6.3-3.6c.1-2 1.4-2.8 3.2-2.8 1.7 0 3.1.5 3.1 2.5 0 1.3-.7 1.5-1.8 1.6-3.2.4-6.4.5-6.4 3.8 0 2.4 1.8 3.5 4 3.5 1.8.1 3.5-.8 4.3-2.4h.1c0 1.3.3 2.1 1.7 2.1.3 0 .6 0 .9-.1v-1.2c-.1.1-.3.1-.4.1-.6 0-.8-.3-.8-.9v-6.4c0-3.2-2.3-3.8-4.4-3.8-2.7 0-4.7 1.2-4.8 4zm10.3 8.2h1.4v-16.4h-1.4zm24-11.4c-.5-3.5-3.5-5.3-6.6-5.3-5.2 0-7.8 4-7.8 8.5s2.6 8.5 7.8 8.5c3.8 0 6.4-2.6 6.8-6.6h-1.6c-.3 2.9-2.2 5.2-5.2 5.2-4.4 0-6.2-3.7-6.2-7.2 0-3.6 1.8-7.2 6.2-7.2 2.4-.1 4.6 1.6 5 4zm5.6 11.4-.5 1.3c-.5 1.1-.8 1.8-2.1 1.8-.3 0-.7-.1-1-.1v1.2c.4.1.7.1 1.1.1 1.8 0 2.3-.6 3.2-2.6l5.1-13.6h-1.4l-3.7 10.1-4-10.1h-1.5zm16.4-5.9c0 2.5-1.1 5-3.9 5-3.1 0-4.2-2.6-4.2-5s1.1-5 4.2-5c2.7-.1 3.9 2.5 3.9 5m-9.5 5.9h1.3v-2.3h.1c.8 1.6 2.4 2.6 4.2 2.6 3.6 0 5.3-2.9 5.3-6.2s-1.7-6.2-5.3-6.2c-1.8-.1-3.4.9-4.1 2.6h-.1v-6.9h-1.5zm22.8-5.5c.1-3.3-1.4-6.7-5.2-6.7s-5.4 3.2-5.4 6.2c0 3.4 1.6 6.2 5.4 6.2 3 0 4.5-1.6 5.2-4.2h-1.4c-.3 1.8-1.9 3.1-3.7 3-2.8 0-3.9-2.5-3.9-4.7zm-9.2-1.2c.3-2.1 1.5-4.2 3.9-4.2 2.3 0 3.7 2 3.8 4.2zm10.8 6.7h1.4v-6.3c-.1-2.2 1.6-4.1 3.8-4.2h.6v-1.5c-2-.1-3.8 1.1-4.5 3h-.1v-2.8h-1.3v11.8z" transform="translate(0 46.984) translate(60.526 -46.694)"/><path d="m5 5.5c-.1-1.1-.5-2.1-1.1-3 0-.1.1-.2.1-.3-.1 0-.3 0-.3.1 0-.1 0-.1-.1-.2-.7-.9-1.6-1.6-2.7-1.9 0-.2-.2-.2-.3-.2 0 0 0 .1-.1.2h-.1c0-.1-.1-.1-.2-.2 0 .1 0 .2.1.3 0 0-.1 0-.1.1s0 .2.1.2h.1v2.2c-.2 0-.3.1-.4.1.1.1.2.1.3.2v2.4c-.1 0-.2.1-.2.3 0 .1.1.1.2.1v.1c-.1 0-.1 0-.1.1.1 0 .1 0 .2-.1h.1c0 .1.1.1.1.1.1.1.2 0 .3-.1h1.6c0 .1.1.2.1.3.1-.1.1-.2.1-.3h1.8c0 .1.1.2.3.2.1 0 .1-.1.1-.2h.1c-.1.1 0 .1.1.1 0 0 0-.1-.1-.1v-.1c.1 0 .1-.1.1-.1.1-.2 0-.4-.1-.3m-1.6-3.3c.8 1.1 1.3 2.3 1.5 3.7h-4.5v-5.7c1.2.3 2.2 1 3 2" transform="translate(0 46.984) translate(25.693 -30.979)"/><path d="m4.2 5.4c-.1-1.3-.6-2.5-1.4-3.5-.3-.5-.7-.9-1.2-1.2s-1-.5-1.5-.7h-.1v5.4zm-1.6-3.4v.1c0 .1.1.1.2.1 0 .1-.1.2-.1.3.1 0 .2 0 .3-.1 0 .1 0 .2.1.2h.1c.5.8.8 1.6.9 2.5-.1 0-.1-.1-.2-.1 0 .2.1.2.1.3h-1.5c0-.1-.1-.1-.1-.2-.1 0-.1 0-.2.1-.1-.1-.1-.2-.2-.3-.1.1-.1.2-.1.3-.1-.1-.1-.2-.2-.1-.1 0-.1.1-.1.2h-1.3c.1-.1.1-.1.1-.3-.1 0-.2 0-.3.1v-2.1c.1 0 .2 0 .2-.1s0-.1-.1-.2c.1 0 .2-.1.3-.1-.1-.1-.2-.1-.2-.1.1-.1.1-.1.1-.2s-.1-.1-.2-.1v-1.8c.1 0 .1.1.2.1 0-.1 0-.2-.1-.3.9.3 1.7 1 2.3 1.8" transform="translate(0 46.984) translate(26.198 -30.64)"/><path d="m3.2 3.4.2-.2c-.1.1-.2 0-.2 0 .1-.1.1 0 .1-.1-.1-.1-.1-.1-.2-.1-.1.1-.6 0-.6-.3.1.1.1.1.2.1.3.1.5 0 .5-.1 0-.2-.2-.3-.4-.5-.1-.1-.1-.2-.2-.2-.1-.1 0-.3-.2-.6 0-.1 0-.2-.1-.3-.1.3-.1.6.2.9.2.3.7.4.6.7 0 0-.1.1-.1.1-.1 0-.2-.1-.3-.1l-.1-.1c-.2-.2-.4-.4-.5-.6-.2-.2-.2-.5-.1-.7s0-.7-.2-.8v-.2h-.2c0-.1 0-.2-.1-.2 0 0-.1 0-.1-.1-.1.1-.1.1-.1.1h-.2c0 .1 0 .1-.2.1-.1 0-.1.1-.1.1s0 .1.1.1l.1.1.1-.1c.1-.1.1-.1.2.1 0 .1 0 .1-.1.1h-.2c-.1 0-.1.1-.1.1s.1.1.2.1.3-.1.3.1c0 .3-.3.2-.3.5 0-.1-.1-.1-.1-.2-.1-.1-.1-.2-.2-.3s-.1-.1-.2-.1c0-.1-.1-.1-.1-.2s.1-.1.1-.3c0-.1-.1-.1-.1-.1l.1.1h-.1v.1c0-.1-.1-.1-.1-.1h-.1c0-.1-.1-.1-.1-.1h.1v.1c0 .1.1.1.1.1-.1-.1-.1 0-.1.1v.1c-.1 0-.1.1 0 .1v-.1h.1c-.1.1-.1.1 0 .1-.2.1-.3.1-.3-.1 0 .1 0 .2.1.2h.1v.1c0 .1 0 .1.1.1v-.1.2c.1.2.2.4.4.5-.1 0-.2.2-.2.3-.1.1-.2.1-.3.1 0 0-.1 0-.1-.1v.1h-.1-.1.1v.1c0 .1 0 .1.2.1 0 0-.1.1-.1 0-.1 0-.1-.1-.1 0v.1c0-.1-.1 0-.1.1s0-.1.1-.1v.1c.1.1.1.1.2-.1 0 .1-.1.2 0 .2h.1c0 .1.1.1.1.1v-.1h.1v-.1s.1.1.1.1.1 0 .1-.1c.1 0 .2-.1.3-.1 0-.1.1-.1.1-.1.1 0 .1 0 .2.1 0-.1.1-.1.1-.2 0 .4.5.4.6.6-.2 0-.3-.1-.5 0-.1 0-.3.1-.3.3s.1.3.3.4h-.5c-.1 0-.1-.2-.3-.1 0 0-.1 0-.1.1-.1 0-.1.1-.1.1l.1-.1v.1s0 .1.1.1h.1c0 .1-.2-.1-.1.1v.1c0 .1.1.1.1.1s-.1 0-.1-.1h.1v.1c0 .1.1.1.1.1s-.1 0-.1-.1h.1v-.1c0 .1.1.1.1.1s.1 0 .1-.1.1 0 .1.1c0-.1 0-.1.1 0l.1-.1s.1.1.2 0 .1-.1.1-.1l-.2-.3c-.1-.2.2-.3.4-.3 0 .2.2.4.5.6.2.1.3-.1.3-.1v.3c0 .1-.1 0-.2 0h-.1s-.1 0-.1.1c0 0 .1-.1.1-.1 0 .1.2.1.2.1-.1 0-.2.1-.1.1h.1s0 .1.1.1h.1c.1 0 0-.1.1-.1v.1h.1c-.2 0-.1 0-.1 0s-.1 0-.1-.1h.1c.1-.1 0-.1 0-.2s.1 0 .1-.1c.1-.1.1-.1.1-.1.1-.2 0-.2 0-.3" transform="translate(0 46.984) translate(26.387 -29.568)"/><path d="m4.6.8h-.1v-.2c0-.3-.2-.6-.5-.6h-.1c-.7.2-1.3.4-2 .4-.5 0-.9-.1-1.3-.3l-.1.3c0-.1-.1-.2-.3-.2-.1-.1-.2 0-.2.2 0 .1.1.2.2.3.1 0 .1-.1.2-.1l-.1.3c.1 0 .1.1.1.1 0 1.7 1.2 3.4 2.9 3.9.3-.1.6 0 .6.3 0 .1-.1.2-.2.3-.1 0-.2-.1-.2-.1 0-.1.3-.1.3-.1 0-.1 0-.2-.1-.2 0 0 0 0-.1 0-.2-.1-.4 0-.4.2 0 .2.2.4.4.4.2 0 .7-.1.6-.6.1 0 .2 0 .3-.1v-.3h-.1l.1-3.4h.1c.1 0 .3-.1.3-.2-.1-.3-.2-.3-.3-.3m-3.5.2 2.3 3.3c-1.4-.4-2.4-1.8-2.3-3.3m2.4 3-2.1-3.1h.5l1.7 2.5c0 .2 0 .4-.1.6m-1.3-3.1c.2-.1.3-.1.5-.1l1.1 1.6c0 .3 0 .5-.1.8zm1.8-.2c-.2 0-.3.1-.3.2s0 .2.1.2h.1.1l-.1.9-1-1.4c.3-.2.7-.3 1-.4.1.1.2.2.1.5" transform="translate(0 46.984) translate(19.886 -23.762)"/><path d="m2.9 1.6c.4 0 .7-.1.7-.3 0-.5-1.3-.2-1.3-.5 0-.1.1-.1.1-.1.7-.1.7-.6 1.2-.7-.6-.1-.7.4-.9.4.1 0 .2-.1.2-.3-.2.2-.4.2-.5.4 0 0-.1.1 0 .1-.1 0-.2.1-.2.2 0 .5 1.3.1 1.3.5 0 .1-.3.2-.6.2-.2 0-.3-.2-.9-.1 0-.1.2-.3.1-.3.1 0 .1-.1.1-.1s-.1-.1-.1-.1v-.1s-.1-.1-.1-.1c-.1 0-.1 0-.1-.1h-.2v.1c-.1 0-.1.1-.1.1 0 .1 0 .1.1.1-.2.1-.2.1-.2.2 0 0 0 .1.1.1 0 .1-.1.2-.1.3 0 0-.1-.1-.1-.1-.1-.1-.1-.1-.1-.1 0-.1.1-.1.1-.2v-.1s-.1 0-.2 0c0 0 .1 0 .1.1s-.1 0-.1.1v.1c0-.1 0-.1-.1-.1 0-.2-.1-.2-.1-.2v.1c0 .1 0 .1.1.1-.1-.1-.1-.1-.1 0v.1c-.1 0-.1.1 0 .1v-.1.2c0 .1-.2.1-.1 0-.1.1.1.1.2.1 0 0 0 .1.1.1s0 .1.1.1v-.2c.1.1.1.1.1.2-.1.1-.3.1-.4.1h-.2c-.1.1-.3.1-.3.1s0-.1-.1-.1l-.1-.1c0-.1-.1-.1-.1 0 0 0 .1 0 .1.1v.1s0 .1.1.1h-.1c-.1-.1-.1-.1-.1-.1h-.1c-.1 0-.1.1-.1.2 0 0 0-.1.1-.1v.1c0 .1.1.1.2 0 0 .1-.1.1-.1.1 0 .1.1.1.1.1s-.1-.1-.1-.1h.1c.1 0 .1-.1.1-.1s0 .1.1.1c.1 0 .1-.1.1-.1l.1.1s.1 0 .1-.1v.1s.1-.1.1-.1v.1h.1s0 .1.1.1c0-.2.1-.1.3-.2 0 0 0 .1-.1.1.1 0 .1-.1.1-.1v-.2c.1 0 .1 0 .1-.1v.1c.1 0 .2-.1.2-.1.3-.1-.1-.3.4-.3.1 0 .1 0 .1-.1 0 .1 0 .3.1.3s.1 0 .1.1h-.1c-.1.1-.1-.2-.3-.1-.1 0-.1.1-.1.1l.1-.1s0 .1.1.1h-.1c0 .1-.1 0-.1.1v.1c0 .1 0 .1.1.1 0 0-.1 0-.1-.1v.1c.1 0 .1.1.2 0 0 0-.1 0-.1-.1h.1.1s.1.1.1.1c.1 0 0-.1.1-.1h.3c0-.1 0-.1-.1-.2-.1 0 0-.1-.1-.1.1 0 .1.1.3.1s0 0 .1-.1.2 0 .2 0 .1 0 .1.1v.1c0 .1-.1 0-.1 0h-.2c-.1-.1-.2 0-.2 0h.1.1s-.1.1 0 .2h.1c0 .1 0 .1.1.1v-.1h.1c.1 0 0-.1.1-.1v.1h.1c0 .1.1.1.1.1s-.1 0-.1-.1v-.1c-.2-.1-.2-.1-.2-.1 0-.1.1 0 .1-.1 0 0 0-.1-.1-.1h.1c-.1 0-.1-.1-.1-.1s.1-.1.1-.1c0 .1-.1.1-.1 0 0 0 0-.1-.1-.1.1.2 0 .1-.2.1zm-1.2-.6s0 0-.1 0c-.1-.1 0-.1-.1-.1.1 0 .2 0 .2.1m.1.1h-.1v.1l-.1.1c-.1 0-.1-.1 0-.1 0 0 0-.1.1-.1h.1c-.1 0-.1-.1-.1-.1s.1 0 0-.1h-.1v.1h.1.1zm.1 0c-.1 0-.1-.1-.1-.1z" transform="translate(0 46.984) translate(21.312 -30.836)"/><path d="m1 1.1-.2-.2s0 0 0-.1.1-.1.1-.2v-.1c0-.1-.1-.1-.1-.1l.1.1-.2.1v.1s0-.1-.1-.1c0-.1-.1-.1-.1-.1h.1v.1c0 .1.1.1.1.1-.1-.1-.1 0-.1.1v.1c-.1 0-.1.1 0 .1v-.2h.1c-.1.1-.1.1 0 .1-.2.1-.2.1-.3.1 0 0-.1 0-.1-.1 0 .2.1.3.3.2 0 0 0 .1.1.1 0 .1 0 .1.1.1v-.1c.1.1.1.1.2.1-.1.1 0 .2.1.1 0 .1 0 .1.1.2h-.4s-.3.1-.3 0c0 0 0-.1-.1-.1h-.1c-.1-.1-.1-.1-.1 0 0 0 .1 0 .1.1v.1s0 .1.1.1h-.1c0-.2 0-.2-.1-.2h-.1s-.1.1-.1.2c0 0 0-.1.1-.1v.1c0 .1.1.1.2 0 0 .1-.1.1-.1.1 0 .1.1.1.1.1s-.1-.1-.1-.1h.1c.1 0 .1-.1.1-.1 0 .1.1.1.1.1.1 0 .1-.1.1-.1l.1.1s.1 0 .1-.1v.1s.1-.1.1-.1v.1h.1s0 .1.1.1c0-.2.1-.1.3-.2 0 0 0 .1-.1.1.1 0 .4-.2.4-.3h.1c.4.1.1-.4.8-.3 0 0 .1 0 .1-.1-.1.1-.1.3 0 .3s.1 0 .1.1h-.1c-.1 0-.1-.2-.2-.1h-.1c-.1 0-.1.1-.1.1l.1-.1s0 .1.1.1h.1c0 .1-.2 0-.1.1v.1c0 .1 0 .1.1.1 0 0-.1 0-.1-.1h.1v.1c0 .1.1.1.1.1s-.1 0-.1-.1h.1v-.1h.1c0 .1.1.1.1.1s0-.1.1-.1h.3c0-.1 0-.2-.1-.2s-.2-.1-.2-.2c.1 0 .2.1.2.1.2 0 .3 0 .3-.1.1-.1.2 0 .3 0 0 0 .1 0 .1.1v.2c0 .1-.1 0-.2 0h-.1c-.1 0-.1.1-.1.1l.1-.1c0 .1.1.1.1.1-.1 0-.2.1-.1.1h.1v.1-.1h.1c.1 0 0-.1.1-.1v.1h.1c-.1.1 0 .1 0 .1v-.1s0-.1.1-.1c0-.1-.1-.1-.1-.1 0-.1.1 0 .1-.1 0 0 0-.1-.1-.1s.1 0 .1-.1c-.1.1-.1 0-.1-.1 0 0 .1-.1.1-.1 0 .1-.1.1-.1 0 0 0 0-.1-.1-.1-.2 0-.3 0-.5-.1.3 0 .7-.1.7-.3 0-.1-.1-.3-.6-.3s-1.4.4-1.4.1c0-.1.2-.1.4-.1 0 0 .1.1.1.1.6.2 1.3-.1 1.6-.1-.3-.3-.7 0-1.2-.1.3 0 .3-.1.4-.1-.2.1-.6-.1-.8.1h-.1c-.3 0-.5 0-.5.1 0 .4 1.2.2 1.6.2s.4.1.4.2-.4.1-.6.1c-.6-.1-1.3-.1-1.9-.1.1-.1.1-.2.1-.3.1 0 .1-.1.1-.1-.1 0-.1-.1-.1-.1v-.1s-.1-.1-.1-.1-.1-.1-.1-.1h-.3s0 0-.1 0v.2c-.1 0-.1.1-.1.1s0 .1.1.1c-.1 0-.1.2-.2.2 0 0 0 .1.1.1v.2l-.1-.1zm.7-.3c.1 0 .1.1.2.1-.1 0-.1.1-.1.1-.1-.2-.2-.2-.1-.2m-.1-.1c0 .1-.1.1-.1.1-.1-.1 0-.1-.1-.1.1-.1.1 0 .2 0m-.2.3c.1-.1.1-.1.1-.1 0-.1 0-.1-.1-.1 0 0 .1 0 0-.1v.1h.1l.1.1v.1s0-.1-.1-.1v.1h-.1c.1.1 0 .1-.1.1.1 0 .1 0 .1-.1" transform="translate(0 46.984) translate(20.393 -28.811)"/><path d="m2 1.5c.1-.1.1 0 0 0 .2 0 .2-.1.3-.1.7.1.3-.4 1.1-.3.1 0 .1 0 .1-.1-.1.1-.1.2 0 .2h.1c.1 0 .1 0 .1.1h-.2c-.1.1-.1-.2-.2-.1h-.1c-.1 0-.1.1-.1.1l.1-.1s0 .1.1.1h.1c0 .1-.2 0-.1.1v.1c0 .1 0 .1.1.1 0 0-.1 0-.1-.1h.1v.1c0 .1.1.1.1.1s-.1 0-.1-.1h.1v-.1h.1c0 .1.1.1.1.1.1-.1 0-.1.1-.1h.3c0-.1 0-.2-.1-.2s0-.1-.1-.1c.1 0 .2.1.2.1.2 0 .3 0 .3-.1.1-.1.2 0 .3 0 0 0 .1 0 .1.1v.2c0 .1-.1 0-.2 0h-.2c-.1 0-.1.1-.1.1l.1-.1c0 .1.1.1.1.1-.1 0-.1.1-.1.1h.1c0 .1 0 .1.1.1v-.1h.1c.1 0 0-.1.1-.1v.1h.1c0 .1.1.1.1.1s-.1 0-.1-.1 0-.1.1-.1c0-.1-.1-.1-.1-.1 0-.1.1 0 .1-.1 0 0 0-.1-.1-.1s.1 0 .1-.1c-.1 0-.1-.1-.1-.1s.1-.1.1-.1c0 .1-.1.1-.1 0 0 0 0-.1-.1-.1-.2 0-.3 0-.5-.1.3 0 .7-.1.7-.3 0-.1-.1-.3-.6-.3s-1.9.4-1.9.1c0-.2.4-.1.8-.1 0 0 .1.1.1.1.6.2 1.2-.2 1.6 0-.3-.4-.7 0-1.2-.1.3 0 .5-.1.5-.1-.1.1-.7-.1-1 0-.4 0-.9-.1-.9.2 0 .4 1.6.2 1.9.2.4 0 .4.1.4.1 0 .1-.4.1-.6.1-.8-.1-1.6-.1-2.4 0 .1-.1.2-.3.1-.3.1 0 .1-.1.1-.1-.1 0-.1-.1-.1-.1v-.1s-.1-.1-.1-.1c-.1 0-.1 0-.1-.1h-.1s-.1 0-.1.1h-.1v.1c-.1 0-.1.1-.1.1s0 .1.1.1c-.2.1-.2.2-.2.2l.1.1v.1h-.3c-.1 0-.1-.1-.3-.2 0-.1 0-.1 0-.2s.1-.1.1-.2c0-.1-.1-.1-.1-.1l.1.1h-.1v.1s0-.1-.1-.1h-.1c0-.1-.1-.1-.1-.1h.1v.1c0 .1.1.1.1.1-.1-.1-.1 0-.1.1v.1c-.1 0-.1.1 0 .1v-.1h.1c-.1 0-.1.1 0 .1 0 .1-.1.1-.1.1s-.1 0-.1-.1c0 .1 0 .2.1.2h.1s0 .1.1.1 0 .1.1.1v-.1c0 .1.1.2.2.2s.1 0 .2-.1v.1c0 .1 0 .1.1.2h-.4c0 .1-.3.1-.3.1s0-.1-.1-.1c0 0 0-.1-.1-.1 0-.1-.1-.1-.1 0 0 0 .1 0 .1.1v.1s0 .1.1.1h-.1c0-.1 0-.2-.1-.1h-.1s-.1 0-.1.1c0 0 0-.1.1-.1v.1c0 .1.1.1.2 0 0 .1-.1.1-.1.1h.1c0 .1.1.1.1.1s-.1-.1-.1-.1h.1c.1 0 .1-.1.1-.1 0 .1 0 .1.1.1s.1-.1.1-.1l.1.1s.1 0 .1-.1c0 .1 0 .1-.1.1.1 0 .1-.1.1-.1v.1h.1v.1s0-.1.1-.1 0 .1.1.1c0-.2.3-.1.4-.2 0 0 0 .1-.1.1.1 0 .1 0 .1-.1.3.1.4.1.4.1m-.2-1.2c0 .1-.1.1-.1.1-.1-.1 0-.1-.1-.1 0-.1.1-.1.2 0m.1.2c-.1-.1-.1 0 0 0h-.1v.1s-.1.1-.1.1c-.1 0-.1-.1 0-.1 0 0 0-.1.1-.1s.1 0 .1-.1c0-.1 0-.1-.1-.1.1 0 .1 0 .1-.1h-.2v.1h.1l.1.1zm.1-.1c-.1 0-.1-.1-.1-.1.1 0 .1.1.2.1-.1 0-.1 0-.1 0" transform="translate(0 46.984) translate(19.635 -26.539)"/><path d="m4.8 1.1c.1 0 .1 0 .1-.1 0 .1-.1.1-.1 0 0 0 0-.1-.1-.1-.2 0-.3 0-.5-.1.3 0 .7-.1.7-.3 0-.1-.1-.3-.6-.3s-1.8.4-1.8.1c0-.1.4-.1.8-.1 0 0 .1.1.1.1.6.2 1.2-.2 1.6-.2-.5-.1-.8.2-1.2 0 .3 0 .5-.1.5-.1-.2.1-.8-.1-1 .1-.4 0-.9-.1-.9.2 0 .4 1.6.2 1.9.2.4 0 .4.1.4.1 0 .1-.4.1-.6.1-.8-.1-1.6-.1-2.4 0 .1-.1.2-.3.1-.3.1 0 .1-.1.1-.1-.1 0-.1-.1-.1-.1v-.1s-.1-.1-.1-.1c-.1 0-.1 0-.1-.1h-.2s-.1 0-.1.1v.2c-.1 0-.1.1-.1.1s0 .1.1.1c-.2 0-.2.2-.2.2s0 .1.1.1v.1h-.3c-.1 0-.1-.1-.3-.2 0-.1-.1-.1-.1-.2s.1-.1 0-.2v-.1c0-.1-.1-.1-.1-.1l.1.1v.1.1s0-.1-.1-.1c0-.1-.1-.1-.1-.1h.1v.1c0 .1.1.1.1.1-.1-.1-.1 0-.1.1v.1c-.1 0-.1.1 0 .1v-.2h.1c-.1.1-.1.1 0 .1 0 .1 0 .1-.1.1s-.1 0-.1-.1c0 0 0 0 0-.1 0 .1 0 .2.1.2h.1s0 .1.1.1c0 .1 0 .1.1.1-.1.1 0 .2.1.3 0-.1 0-.1.1-.1 0 .1 0 .1.1.1 0 .1 0 .1.1.2h-.3s-.3.1-.3 0c0 0 0-.1-.1-.1 0 0 0-.1-.1-.1-.1-.1-.1-.1-.1 0 0 0 .1 0 .1.1v.1s0 .1.1.1h-.1c0-.1 0-.1-.1-.1h-.1s-.1.1-.1.2c0 0 0-.1.1-.1v.1c0 .1.1.1.2 0 0 .1-.1.1-.1.1 0 .1.1.1.1.1s-.1-.1-.1-.1h.1c.1 0 .1-.1.1-.1 0 .1 0 .1.1.1s.1-.1.1-.1l.1.1s.1 0 .1-.1v.1s.1-.1.1-.1v.1h.1v.1s0-.1.1-.1 0 .1.1.1c0-.2.1-.1.3-.2 0 0 0 .1-.1.1.1.1.3-.1.3-.1s.1 0 .1-.1c.1 0 .1-.1.2-.1.6.1.2-.4 1-.3.1 0 .1-.1.1-.1 0 .1 0 .3.1.3s.1 0 .1.1h-.1c-.1 0-.1-.2-.2-.2h-.1c-.1 0-.1.1-.1.1l.1-.1s0 .1.1.1c0 .1-.2 0-.1.1v.1c0 .1 0 .1.1.1 0 0-.1 0-.1-.1h.1v.1c0 .1 0 .1.1.1 0 0-.1 0-.1-.1h.1.1c0 .1.1.1.1.1.1-.1 0-.1.1-.1h.3c0-.1 0-.2-.1-.2s0-.1-.1-.1c.1 0 .2.1.3.1s.3 0 .4-.1.2 0 .3 0c0 0 .1 0 .1.1v.2c0 .1-.1 0-.2 0h-.2c-.1-.2-.2-.1-.2 0 0 0 .1-.1.1-.1 0 .1.1.1.1.1-.1 0-.1.1-.1.1h.1c0 .1 0 .1.1.1v-.1h.1c.1 0 0-.1.1-.1 0 .1-.1.1 0 .1h.1c0 .1.1.1.1.1s-.1 0-.1-.1l.1-.1c.1-.1-.1-.1-.1-.1 0-.1.1 0 .1-.1 0 0 0-.1-.1-.1.1 0 .1 0 .2-.1-.1 0-.1 0 0 0 0 .2 0 .1 0 0m-3.2-.8c.1 0 .1.1.2.1-.1 0-.1.1-.1.1-.1-.1-.1-.1-.1-.2m-.1 0c0 .1-.1.1-.1.1-.1-.1 0-.1-.1-.1.1-.1.2 0 .2 0m-.2.3s.1 0 0 0c.1-.1.1-.1.1-.1 0-.1 0-.1-.1-.1 0 0 .1 0 0-.1v.1h.1l.1.1v.1s0-.1-.1-.1v.1h-.1c0 .1 0 .1-.1.1.1 0 .1 0 .1-.1" transform="translate(0 46.984) translate(25.63 -23.888)"/><path d="m2.8.3s.1.1.1.1c.6.1 1.1-.3 1.5-.1-.4-.2-.6 0-1.1-.1.3 0 .5-.1.5-.1-.1.1-.6-.1-.9 0h-.1c-.3 0-.6 0-.6.2 0 .4 1.1.2 1.5.2.3 0 .3.1.3.1 0 .1-.4.1-.6.1-.6 0-1.2 0-1.8 0 .1-.1.1-.2.1-.3.1 0 .1-.1.1-.1s-.1-.1-.1-.1v-.1s-.1-.1-.1-.1c-.1 0-.1 0-.1-.1h-.2s-.1 0-.1.1 0 0-.1 0v.1s-.1.2-.1.2 0 .1.1.1c-.1 0-.1.1-.2.1 0 0 0 .1.1.1v.2h-.1c-.1 0-.1 0-.2-.1 0-.1 0-.1 0-.2s.1-.1 0-.2c0-.1-.1-.1-.1-.1s.1 0 .1.1 0 .1-.1.1v.1s0-.1-.1-.1h-.1c0-.1-.1-.1-.1 0h.1v.1c0 .1.1.1.1.1-.1-.1-.1 0-.1.1v.1c-.1 0-.1.1 0 .1v-.3h.1c-.1.1-.1.2 0 .2 0 .1-.2.1-.1 0 0 .1 0 .2.1.2h.1s0 .1.1.1 0 .1.1.1v-.2s0-.1.2 0c0 0 0 .1.1.1h.1v.2h-.4c-.1.1-.3.1-.3 0 0 0 0-.1-.1-.1v-.1h-.1c0-.1-.1-.1-.1 0 0 0 .1 0 .1.1v.1s0 .1.1.1h-.1c0-.1 0-.1-.1-.1h-.1s-.1 0-.1.1c0 0 0-.1.1-.1v.1c0 .1.1.1.2 0 0 .1-.1.1-.1.1 0 .1.1.1.1.1s-.1-.1-.1-.1h.1c.1 0 .1-.1.1-.1s0 .1.1.1.1-.1.1-.1l.1.1s.1 0 .1-.1v.1s.1-.1.1-.1v.1h.1s0 .1.1.1c0-.2.2-.1.3-.2 0 0 0 .1-.1.1.1.1.3-.1.3-.2l.1-.1v.1c.1 0 .1-.1.1-.1.2 0-.1-.4.5-.3 0 0 .1 0 .1-.1 0 .1 0 .3.1.3s.1 0 .1.1h-.1c-.1.1-.1-.2-.2-.1h-.1c-.1 0-.1.1-.1.1l.1-.1s0 .1.1.1h.1c0 .1-.2 0-.1.1v.1c0 .1 0 .1.1.1 0 0-.1 0-.1-.1h.1v.1c0 .1.1.1.1.1s-.1 0-.1-.1h.1v-.1h.1c0 .1.1.1.1.1.1-.1 0-.1.1-.1h.3c0-.1 0-.2-.1-.2s0-.1-.1-.1 0 0 .1 0 .3 0 .4-.1.2 0 .3 0c0 0 .1 0 0 .1s0 .1-.1.1c0 .1-.1 0-.2 0h-.1c-.1 0-.1.1-.1.1s.1-.1.1-.1c0 .1.1.1.1.1-.1 0-.1.1-.1.1 0 .1 0 .1.1.1h.1c.1 0 .1-.1.1-.1 0 .1-.1.1 0 .1h.1c0 .1.1.1.1.1s-.1 0-.1-.1l.1-.1c.1-.1 0-.1 0-.1 0-.1.1 0 .1-.1v-.1c.1 0 .1-.1.1-.1v-.1c0-.1 0-.1 0-.1 0 .1-.1.1-.1 0 0 0 0-.1-.1-.1-.2 0-.4 0-.6-.1.3 0 .8 0 .8-.2 0-.1 0-.2-.4-.2s-1.4.2-1.4-.1c.2.1.4.1.6.2m-1.2 0c.1 0 .1.1.2.1-.1 0-.1.1-.1.1-.1-.1-.1-.2-.1-.2m-.1-.1c0 .1-.1.1-.1.1-.1-.1 0-.1-.1-.1 0-.1.1-.1.2 0m-.2.4c.1-.1.1-.1.1-.1 0-.1 0-.1-.1-.1 0 0 .1 0 0-.1h.1l.1.1v.1s0-.1-.1-.1v.1l-.1.1c0 .1 0 .1-.1.1.1-.1.1-.1.1-.1" transform="translate(0 46.984) translate(25.63 -22.057)"/><path d="m2.5.4s.1.1.1.1c.6.1 1.1-.3 1.5-.2-.4-.2-.6.1-1.1 0 .3 0 .5-.1.5-.1-.2.1-.7-.1-.9 0 0 0-.1 0-.1.1-.2 0-.3.1-.3.2 0 .2.2.2.6.2s.8-.1.8 0-.3.2-.6.2c-.5-.1-.9-.1-1.4-.1.1-.1.2-.3.1-.3.1 0 .1-.1.1-.1s-.1-.1-.1-.1v-.1s-.1-.1-.1-.1c-.1 0-.1 0-.1-.1h-.2v.1c-.1 0-.1.1-.1.1 0 .1 0 .1.1.1-.2.1-.2.2-.2.2l.1.1c0 .1-.1.3 0 .3-.1-.1-.3-.3-.4-.3 0-.1 0-.1 0-.2v-.3c0-.1-.1-.1-.1-.1s.1 0 .1.1 0 .1-.1.1v.1s0-.1-.1-.1h-.1c0-.1-.1-.1-.1 0h.1v.1s0 .1.1.1c-.1-.1-.1 0-.1.1v.1.1-.3h.1c-.1.1-.1.1 0 .1 0 .1-.1.1-.1 0 0 .1 0 .2.1.2h.1s0 .1.1.1 0 .1.1.1v-.1c0 .1.1.2.2.3 0 .1.1.1.2.1 0 0 0 .1.1.1h-.6s-.1.1-.1.1h-.1c-.1 0-.1 0-.1-.1 0 0 0-.1-.1-.1h-.1s-.1-.1-.1 0c0 0 .1 0 .1.1v.1s0 .1.1.1h-.1c0-.1 0-.1-.1-.1h-.1s-.1 0-.1.1c0 0 0-.1.1-.1v.1c0 .1.1.1.2 0 0 .1-.1.1-.1.1 0 .1.1.1.1.1s-.1-.1-.1-.1h.1c.1 0 0-.1.1-.1 0 0 0 .1.1.1.1 0 .1-.1.1-.1l.1.1s.1 0 .1-.1v.1s.1-.1.1-.1v.1h.1s0 .1.1.1c0-.2.1-.1.3-.2 0 0 0 .1-.1.1.1 0 .2-.1.2-.1 0-.1.1-.2.1-.3h.1c.1 0 .2-.1.4-.1-.3-.1-.3 0-.3 0 0 .1.2.2.2.2h-.2c-.1.1-.1-.2-.2-.1h-.1c-.1 0-.1.1-.1.1l.1-.1s0 .1.1.1h.1c0 .1-.1 0-.1.1v.1c0 .1 0 .1.1.1 0 0-.1 0 0-.1v.1c0 .1.1.1.1.1s-.1 0-.1-.1h.1v-.1h.1s.1.1.1.1c.1 0 0-.1.1-.1h.2c0-.1 0-.1-.1-.2-.2 0-.1-.4-.2-.5.1 0 .4.1.4 0 .1 0 .2.1.2.1v.1c-.1.1-.1.1-.1.1l-.1-.1h-.1s-.1 0-.1.1h.1v.1c-.1 0-.1 0-.1.1v.1.1s0-.1.1-.1h.1s-.1 0-.1.1c0 .1 0 .1.1.1v-.1h.1s.1-.1.1-.1c.1 0 .1.1.1 0v-.1s.1.1.1 0c-.1-.1 0-.1 0-.1s.1 0 .1-.1c-.2 0-.3-.1-.2-.1.1-.1.1-.1.1-.1s-.3-.1-.3-.2h.1c.4 0 .8-.1.8-.3s-.1-.1-.4-.1c-.5 0-1 .1-1 0 .3.2.5.1.5.1m-1.1 0c0 .1-.1.1-.1 0-.1-.1 0-.1-.1-.1.1.1.2.1.2.1m.1.2h-.1v.1l-.1.1c-.1 0-.1-.1 0-.1 0 0 0-.1.1-.1h.1c-.1 0-.1-.1-.1-.1s.1 0 0-.1h-.1.1l.1.1zm.1 0c-.1 0-.1-.1-.1-.1l.1.1c0-.1 0 0 0 0z" transform="translate(0 46.984) translate(25.504 -20.481)"/><path d="m18.1 16.7c0-.6-.2-1.1-.6-1.5-.5-.6-2.3-2.5-2.8-3.2.2 0 .5.1.6.3.2.2.8.7 1.1 1.1.5-1.2 1.1-2.3 2-3.3.1-.2.3-.3.4-.5-.4.1-.8.3-1.1.5 0-.5-.2-1-.5-1.4.1-.8 0-1.6-1.6-2.8.9.2 1.4 1 2 .4-.6 0-.6-1.3-2.7-2.3.8 0 1.5 1.3 2.4.6-.9-.1-1.2-1.6-2.8-2.1.6.1 1.1.3 1.6-.3-.6.1-.9-.4-1.5-.4.2-.5.2-1.1-.1-1.6-.4 0-.8.1-1.1.4 0-.6-.4-.6-.8-.6 0 .2.1.4-.1.4-.3.1-1.2.3-2 .6-.5.3-1.1.6-1.7 1-.1.1-.3-.2-.4-.3-.3.2-.5.5-.3.8-.5 0-.9.2-1.3.4.1.5.4 1 .9 1.2-.9.9 0 1.9-.9 2.7 1.2.1 1-1.6 1.6-1.9 0 1.2-.7 1.4-.7 2.7 0 .7.4 1.5.1 1.9 1-.3.8-2.5 1.4-3.2.1.3 0 .7-.1 1.1-.4 1.1.1 2.5-.5 3 .9-.1 1.1-1.4 1.7-2.1-.6 1.7-1.3 4.6-2.3 6-1.8 2.4-2.8 5.3-4.4 5.3-.7 0-1.2-.5-1.3-1.2 0-.1 0-.1 0-.2 0-2.7 4.7-4.5 4.7-7.4 0-1-.7-1.8-1.7-1.8-.5 0-1 .2-1.5.6-.1-.1-.3-.1-.5-.1-1.6 0-1.2 3-2.6 2.9.6.3 1.6-.3 2.1-1.1-.3 1.9-3 1.4-2.8 3.7.4-1.8 4.8-1.5 4.8-4.3 0-.3-.1-.6-.4-.8.3-.2.6-.3 1-.3.6 0 1 .5 1 1.1v.1c0 2.4-4.6 4.5-4.6 7.4 0 .5.1.9.4 1.3-.3.1-.7 0-.9-.3.1.7.8 1.1 1.4 1 .1 0 .2-.1.3-.1.1.1.3.1.5.1-.2.5-.7.8-1.3.7 1.1.9 3.1-.3 3-1.3.8-.9 1.5-1.8 2.1-2.8-.1.2-.1.4-.1.6-.7 1.2-1.2 2.5-1.5 3.9 0 1.3-.7 2.5-1.7 2.5-.2 0-.6-.3-.7-.1-.3.3 0 .5 0 .8 0 .4-.8.8-.8 1.9 0 .5.3 1.1.2 1.5.5-.3.8-.8.9-1.3.4 1.4-.6 1.4.1 2.7 0-.3.3-.5.6-.5.1 0 .1 0 .2.1.3.2.1.3-.1.5s-.4 1.2.6 1.1c-.2-.1-.2-.4.3-.5.6-.1.8.2 1.5.2.4 0 .6-.6.9-.6s.3.3.2.4c.6-.1.6-.4.6-.8s-.3-.5-.1-.6.8 0 .6.5c.3-.1.5-.4.5-.7 0-.4-.4-.6-.9-.6-.1-.3-.4-.4-.8-.4-.8 0-.6.6-1.1.6-.8 0-1.6-1.1-1.6-2.9 0-.9 1.1-1.2 1.8-1.5 1.2-.5 2.2-1.4 2.8-2.5.5-1.1.7-2.3.6-3.5.8.4 1.2 1.2 1.2 2.1 0 .6-.3 1.1-.8 1.3-.3.1-.4.1-.4.3-.1.2.1.3.3.4.4.2.3.6.4.9.2.6.6 1.1 1.1 1.4.1-.4.1-.8 0-1.1.8.4.2 2 1.7 2-.2-.1-.3-.3-.1-.5 0 0 .1-.1.1-.1.2-.1.4.1.7.5s.3.4.9.4c.8 0 .4-.3.8-.3s.4.4.1.8c.6-.2.9-.7.6-1.2.3-.2.7-.1.8.2.1.1.1.2.1.3.3-.3.3-.8 0-1.1-.1-.1-.3-.2-.4-.2 0-.2-.2-.4-.4-.4h-.8c-.3 0-.4.4-.8.4-1 0-2.9-1.8-2.9-2.5s1.8-1.3 1.8-2.4c0-1.6-1.5-2.1-2.8-3.1.8-.5 1.7-.6 2.6-.3.1-.4.4-.3.4-1.1.3.6-.1 1.2.2 1.4.2-.3.8-.3.8-1.1.2.5-.2 1.3.2 1.6.1-.4.3-.5.5-.5s.3.1.3.4c0 .6-.8.4-.8 1.1 0 .3.4.4.4.6s-.3.4-.5.3c-.1 0-.1 0-.2-.1.1.3.4.5.7.5.4 0 .7-.3.8-.6.2.4.1.9-.3 1 .3.2 1.1 0 1.1-1 .4.1.7.4.4.9.4-.1.7-.3.7-.7 0-.3-.3-.5-.3-.9-.1 0-.3-.2-.4-.5m-8.1-12.9c-.5 0-.5-.4-1.2-.6.5-.1 1.2-.4 1.8-.6.2.4-.1.9-.5 1.1 0 .1-.1.1-.1.1m3 3.1c-.4.2-.9-.1-1.1-.5 0 0 0 0 0-.1-.1-.3-.2-.6-.1-.7.3-.3.3-.4.2-.7-.2-.3-.5-.2-.9-.1.2-.3.2-.6-.1-.5s-.3.5-.4.4c-.2-.1-.1-.3-.1-.4 0-.2.1-.3.3-.4l1.6-.6c.2-.1.3-.1.5 0 .1.1.4.3.3.4s-.4-.2-.6 0c-.2.1 0 .3.3.4-.3.2-.7.3-.6.7.1.3.3.4.6.4.2 0 .3.3.4.6.3.5.1.9-.3 1.1m.1-4.3c-.5.2-1 .1-1.3-.4.6-.2 1.2-.5 1.7-.8-.4.6-.1.9-.4 1.2" transform="translate(0 46.984) translate(0 -41.873)"/><path d="m.6.3c0-.1-.1-.3-.3-.3-.1 0-.3.1-.3.3 0 .2.1.3.3.3.2 0 .3-.1.3-.3z" transform="translate(0 46.984) translate(7.14 -42.126)"/><path d="m.6.3c0-.1-.1-.3-.3-.3-.1 0-.3.1-.3.3 0 .2.1.3.3.3.2 0 .3-.1.3-.3z" transform="translate(0 46.984) translate(7.077 -42.946)"/><path d="m.3.6c.2 0 .3-.1.3-.3 0-.1-.1-.3-.3-.3-.1 0-.3.1-.3.3.1.2.2.3.3.3" transform="translate(0 46.984) translate(7.519 -43.577)"/><path d="m.3.6c.2 0 .3-.1.3-.3 0-.1-.1-.3-.3-.3-.1 0-.3.1-.3.3 0 .2.1.3.3.3" transform="translate(0 46.984) translate(8.339 -43.64)"/><path d="m.1.5c.1.1.3.1.4 0 .1-.1.1-.3 0-.4-.1-.1-.3-.1-.4 0-.1.1-.1.3 0 .4z" transform="translate(0 46.984) translate(12.031 -44.113)"/><path d="m.5.5c.1-.1.1-.3 0-.4-.1-.1-.3-.1-.4 0-.1.1-.1.3 0 .4.1.2.3.2.4 0z" transform="translate(0 46.984) translate(11.526 -44.745)"/><path d="m.5.5c.1-.1.1-.3 0-.4-.1-.1-.3-.1-.4 0-.1.1-.1.3 0 .4.1.2.3.2.4 0z" transform="translate(0 46.984) translate(10.705 -44.871)"/><path d="m.5.5c.1-.1.1-.3 0-.4-.1-.1-.3-.1-.4 0-.1.1-.1.3 0 .4.1.2.3.2.4 0z" transform="translate(0 46.984) translate(10.011 -44.366)"/><path d="m0 .8.3.5.3-.4h.1c0 .2.1.5.1.6 0 .2.2.4.4.4s.4-.2.4-.4c0-.1-.1-.3-.2-.3-.3-.1-.5-.3-.6-.4l.5.1-.2-.6-.3.3v-.6l-.5.2.4.4v.1z" transform="translate(0 46.984) translate(8.592 -45.028)"/><path d="m4.6.3c.1.2.2.3.2.4-.1-.1-.2-.2-.3-.3l.1.7c0-.1.1-.2.3-.3 0 .4-.2.6-.4.7s-.4-.1-.5-.2c0-.2.2-.4.4-.2 0-.4-.4-.4-.5-.2.2-.3.1-.6-.1-.8-.1-.1-.1-.1-.1-.1-.3.4-.2.6.1.9-.3-.1-.5.2-.3.4.1-.3.3-.2.3 0 .1.2-.1.4-.4.5-.4.2-.6-.1-.7-.4.1 0 .3 0 .6.2l-.2-.7c-.1.2-.3.3-.4.4 0-.2.1-.4.1-.6l-.8.3c.2.1.3.2.5.3-.2.1-.4.1-.6 0l.3.7c0-.2.1-.4.3-.5.1.2.2.5-.2.7-.2.1-.5.1-.7-.1s0-.4.3-.3c-.1-.3-.4-.3-.5 0 0-.4-.1-.6-.5-.8-.1.4.1.6.4.8-.2 0-.5.2-.2.5 0-.3.2-.3.3-.1s0 .4-.1.4c-.1.1-.3.1-.7-.2.1-.1.2 0 .4 0l-.5-.6v.4c-.1-.1-.1-.1-.2-.4l-.3.3c.5.3.8.7 1.1 1.1.5-.2 1.4-.6 1.9-.9.6-.2 1.3-.5 2-.6-.2-.5-.2-1.1 0-1.6z" transform="translate(0 46.984) translate(7.518 -43.576)"/><path d="m0 1.3c0 .7.6 1.3 1.3 1.3s1.3-.6 1.3-1.3-.5-1.3-1.3-1.3c-.7 0-1.3.6-1.3 1.3m.3 0c0-.5.4-.9.9-.9s.9.4.9.9-.4.9-.9.9c-.5.1-.9-.3-.9-.9z" transform="translate(0 46.984) translate(48.221 -18.02)"/><path d="m.3.2c-.1.1-.3.3-.3.5s0 .5.2.6c.2.2.4.3.6.4.3.1.5 0 .8-.1.2-.1.4-.3.4-.6 0-.5-.4-1-.9-1-.2 0-.5.1-.8.2m.6 1.2c-.4-.1-.6-.3-.6-.6 0-.1.1-.2.2-.3.2-.1.4-.2.6-.1.3 0 .5.3.6.6 0 .3-.4.4-.8.4" transform="translate(0 46.984) translate(43.023 -15.685)"/><path d="m.4.2c-.4.3-.5.8-.3 1.2.4.4.9.4 1.2.1.2-.2.4-.4.4-.7 0-.2 0-.4-.1-.5-.1-.2-.3-.3-.5-.3s-.5 0-.7.2m-.1.8c0-.2.1-.4.3-.5.1-.1.3-.2.5-.1.1 0 .2.1.3.1.1.1.1.2.1.3 0 .2-.1.3-.2.4-.2.2-.5.2-.8 0-.2-.1-.2-.2-.2-.2" transform="translate(0 46.984) translate(35.784 -34.009)"/><path d="m.3.2c-.2.2-.3.5-.3.8s.1.6.3.7c.1.2.3.2.5.3.2 0 .4-.1.5-.2.2-.2.3-.5.3-.8 0-.2-.1-.5-.2-.7-.1-.2-.3-.3-.6-.3-.2 0-.4 0-.5.2m.5 1.4c-.1 0-.2 0-.3-.1s-.2-.3-.2-.5.1-.4.2-.6c.1-.1.2-.1.3-.1.3 0 .5.3.5.7 0 .2-.1.4-.2.6-.1 0-.2 0-.3 0" transform="translate(0 46.984) translate(41.532 -17.831)"/><path d="m.5.1c-.2 0-.4.2-.4.4-.2.5.1 1 .6 1.2.3.1.5.1.8.1.2-.1.4-.2.4-.4.1-.2.1-.4 0-.6-.1-.3-.3-.5-.6-.6-.2-.2-.5-.2-.8-.1m.3 1.2c-.4-.1-.5-.5-.4-.7 0-.1.1-.2.3-.2.1-.1.3 0 .5.1s.3.2.4.4c0 .1.1.2 0 .3 0 .1-.1.2-.3.2-.1.1-.3 0-.5-.1" transform="translate(0 46.984) translate(34.907 -28.267)"/><path d="m17.8 16.5c.4 1.2 1.3 1.6 1.9 1.3-1.5-.2-.3-2.7-2.1-2.7-.1 0-.2 0-.3.1-.3-.3-.8-.5-1.2-.4-1.2.1-2.2 1.1-2.1 2.3 0 3.3 3.9 3.7 3.9 6.6 0 .7-.5 1.4-1.3 1.4h-.1c-.6 0-1.2-.8-1.8-1.9-.4-.8-.9-1.4-1.5-2.1.2.1.4.2.6.2s.4-.1.6-.2c.1-.1.2-.3.3-.5 0-.3-.1-.6-.3-.8s-.5-.4-.8-.4c-.2 0-.4.1-.6.2-.1.1-.2.3-.3.5 0 .1 0 .3.1.3-.7-.8-1.3-1.7-1.6-2.8.1-.6.4-1.1.8-1.5l.1.1.1-.1c.1-.2.5-.5 1.1-1.3l.1-.1.2-.2-.4-.3c.1-.3.2-.5.3-.8.1.6.4.9.8.8-.3-.6.3-1.3-.1-2.6.3.5.8.8 1.1.7-.9-.8.3-1.8-.9-3.5.4.1.6.1.8-.1-1-.1-.6-1.5-2.3-2 .4-.1.7-.3.6-.6-.5.3-.9-.6-2.5-.6-.2-.7-.6-1.2-1.3-1.5.1.4 0 .8-.1 1.2l-5.1-5c-.1-.2-.3-.2-.3-.2 0 .1 0 .2.1.3l4.4 5.5c-.4.1-.7.2-1.1.3-.2.1-.3.4-.3.6-.7.3-1.4.7-1.9 1.2-.3.3-.5.3-.3.9.1.2-.2.8.5.4.4-.3 1.3-.8 1.5-.5.1.2-.4.4-.7.5s-.7.4-.7.5.3 0 .3.1.1.2.3.3c.1 0 .3-.3.4-.2s-.1.7-.1.8c.5-.1.8-.4.8-.9 0-.4.1-.4.2-.5s.2.4.1.7c.2 0 .4-.3.4-1 .1-.1.2-.2.4-.2s.5.4.9.4c.6 0 1.2-.4 1.4-1 .1-.2 0-.5-.1-.7.3.2.4.6.4.9 0 1.2-2.1 1.8-3.1 2.7-.1 0-.1.1-.1.1l-1-.4-.1.3c0 .1 0 .1-.1.2-.1.4-.3 1.1-.4 1.5l-.1.2.1.1c-.6.8-1 1.7-1.2 2.7-.3-.3-.5-.4-.8-.7 0-.1.1-.2.1-.3 0-.3-.1-.5-.3-.7-.1-.1-.2-.2-.4-.3-.2 0-.4.1-.5.2-.1 0-.1.1-.1.1-.1 0-.1-.1-.1-.1-.3-.3-.8-.6-1-.8-.1-.1-.3-.2-.4-.2h-.5c-.1 0-.3.1-.4.3-.3.2-.5.4-.8.6.2.2.3.3.4.5l.1.1c.1-.1.3-.2.3-.3.1-.1.2-.1.4-.1s.3.2.4.3.9 1.2 1.6 2c-.1 0-.1.1-.2.1-.4.1-.8.1-1.3.1-.3 0-.4-.1-.6.2.2.1.1.2 0 .3s-.2.3.1.6c.5.8.9 1.6 1.3 2.5.3.6.6.7 1 .9.5.2 1 .4 1.4.8l.1-.4c-.2-.2-.5-.3-.8-.4-.2-.1-.2-.1 0-.1.4.1.8.2 1.2.4-.2-.5-.5-.9-.8-1.3-.3-.1-.6-.1-.8 0 0 .1-.1.2-.1.2-.1 0-.3-.1-.2-.3.1-.1.3-.2.2-.4-.1-.3-.4-.3-.6-.3-.3-.4-.5-.8-.8-1.3-.1-.2-.1-.4.1-.5.2-.2.7.1 1.7.1.4 0 .8.1 1.3.1 0 1.3 1 2.5 2.3 2.8.9.2 1.6.8 2 1.6-3.3-.1-3.9 1.3-3.9 2.5 0 1.4 1.2 1.3 1.2 2.4 0 .9-2.8 1.3-3.7 1.4-.5 0-1.1.2-1.4.6-.3.3-.7.7-1.3 1.3.2 0 .3.1.5.1l.5-.6c.1-.2.3-.4.3-.4s0 .2-.1.4l-.4.6c1.6.1 1.8-.5 1.8-.8s-.4-.5-.2-.6c.3-.2.4-.1.6.2s.3.4.7.3c0 0 3.6-1.5 4-1.7s.3-.4.1-.6c-.2-.3-.3-.6-.3-1 0-1.1.6-1.5 1.8-1.4 0 .2-.1.4-.1.5 0 1.7 2.6 3.3 3.3 3.3.3 0 .8-.3.8.8.1.7.1 1.4.1 2.2 0 .6-.4 1.1-.9 1.4-.5.4-1 1.5-1.3 1.8.3.1.5.2.7-.4.2-.4.3-.8.6-.9-.2.5-.4 1.3-.4 1.5.6.1 1.7-.5 1.7-.9s-.4-.4-.4-.8c0-.2.2-.3.4-.3s.4.1.5.3c.3-.1.5-.4.4-1.1v-.8c0 .1.1.1.1.1.1.2.3.3.6.3.2 0 .5-.1.7-.2.2-.2.4-.4.5-.7v-.2c0-.1 0-.3-.1-.4-.1-.2-.3-.3-.5-.3-.3-.1-.6 0-.8.2s-.4.4-.5.6c-.2-.9-.2-1.7-.2-2.1.1-.5.1-.8-.1-.8-.2-.1-.4.2-.6.2-.6-.3-1-.8-1-1.5 0-.8.8-1.7.8-2.7 0-.3.2-.5.3-.2.2.4.4.8.7 1.2-.2 1.3 1.2 2.5 2.3 1.6-.6.1-.9-.4-1.2-.9h.5c.5.4 1.3.4 1.8-.2.1-.2.2-.4.3-.6-.3.3-.6.4-1 .4.5-.4.8-1 .8-1.6 0-3.2-3.9-3.6-3.9-6.5 0-.9.7-1.7 1.6-1.8.2 0 .4.1.6.2-.3.3-.4.7-.4 1.1.1 2.3 3.9 2.2 3.9 3.3.3-1.6-2.5-1.1-2.6-3.4m-10-8.8c.2-.4 0-.9.6-.9.3 0 .6.3.9.4-.5.1-1 .2-1.5.5m-3.5 7c0 .2-.1.3-.2.4s-.2.1-.3.1c-.2 0-.4-.3-.4-.6v-.1c0-.2.1-.3.2-.4s.2-.1.3-.1.2 0 .3.1c.1.3.1.4.1.6m11.2 16.2c.1-.2.2-.4.4-.5s.4-.2.6-.1c.1 0 .2.1.3.2 0 .1.1.2.1.3-.1.2-.2.4-.4.5-.3.2-.7.2-.8-.1-.3-.1-.3-.2-.2-.3m-2.4-10.7c0-.1 0-.2.1-.3s.2-.1.3-.1c.2 0 .4.1.5.3l.3.6c0 .1 0 .2-.1.3-.1-.1-.2 0-.3 0-.2 0-.4-.1-.5-.3-.2-.1-.3-.3-.3-.5m-6.4-7.3c.2-.6.3-1.1.6-1.7v-.1l.7.3-.1.1c-.2.1-.4.2-.5.4.1 0 .3 0 .4-.1l.2-.1-.3.8-.1-.1c-.1-.1-.2-.2-.3-.3v.1c0 .2.1.4.4.5.3.3.5.3.6.1v-.1c0-.1 0-.1-.1-.1-.1-.1-.2-.1-.3-.1h-.1v-.1c0-.1 0-.3.1-.4.1.1.2 0 .3 0s.3.1.3.2c0-.4.3-.8.7-.9h.1v.1c.1.1.1.2.1.4 0 .3-.1.5-.3.7.2 0 .3 0 .4.1s.1.2.1.3-.1.2-.3.3h-.1v-.1c0-.1-.1-.2-.3-.3-.1 0-.2 0-.3.1-.1.2.1.4.4.6.2.2.6.2.7-.1 0 0 .1-.1.1-.1-.2 0-.3 0-.4.1l-.1.1.5-.9v.1c0 .1.1.3.2.4 0-.1.1-.3.1-.4s0-.2-.1-.3l-.1-.1 1.1.7h-.1c-.2 0-.4.1-.6.3h.4l.1-.1-.6.9v-.1c0-.2 0-.3-.1-.4-.1.1-.1.2-.1.3 0 .2.1.4.3.5.3.2.6.2.6.1.1-.1.1-.2 0-.3s-.2-.1-.3-.1h-.1v-.1c0-.1 0-.3.1-.4s.2-.1.3-.1.3.1.3.3c.1-.4.4-.7.8-.8h.1v.3c0 .3-.2.6-.4.8.1 0 .3.1.3.2 0 0 .1.1.1.2v.1c0 .1-.1.2-.3.3h-.1v-.1c0-.1-.1-.2-.2-.3-.1 0-.2 0-.3.1s.1.3.4.5c.2.2.5.2.8 0-.1-.1-.3-.1-.4-.1l.5-.7v.1c0 .1.1.3.2.4.1-.2.1-.3.1-.5v-.3l.6.5s-.8.9-1.2 1.3zm5.3 13.3c-.2.3-.5.4-.8.3-.2-.2-.3-.6-.1-.8.1-.3.5-.4.8-.3.3.1.3.5.1.8m1.5-2.4c-.2.3-.5.4-.8.3-.2-.2-.3-.6-.1-.8.2-.3.5-.4.8-.3.3.2.3.5.1.8z" transform="translate(0 46.984) translate(31.372 -46.063)"/><path d="m3.7 1.8c-.1 0-.2 0-.3.1v-1.5c-.7-.1-1.5-.2-2.3-.4v1.9c-.1 0-.2-.1-.3-.1-.4 0-.8.4-.8.9 0 .4.2.7.4 1 .1-.3.2-.4.3-.4.3 0 .1 1.4.9 1.4 0 .1-.1.1-.1.2 0 .3.2.6.6.6h.1c.3 0 .6-.3.6-.6 0-.1 0-.1-.1-.2.8-.1.7-1.4.9-1.4.1 0 .3.2.3.4.2-.3.4-.6.4-1s-.3-.8-.7-.9c.2 0 .2 0 .1 0m-1.4 3.5c-.2 0-.4-.1-.4-.3 0-.2.1-.4.3-.4.2 0 .4.2.4.4.1.1-.1.3-.3.3zm1.9-2c-.1-.2-.3-.3-.4-.3-.6 0-.3 1.5-1 1.5-.2 0-.4-.2-.4-.4s.1-.3.1-.4-.1-.2-.2-.2c-.2 0-.3 0-.3.2s.1.3.1.4c0 .2-.1.4-.4.4-.6 0-.4-1.5-.9-1.5-.2 0-.3.2-.4.3-.1-.2-.2-.4-.2-.6 0-.3.3-.6.6-.6.7 0 .6 1 .9 1 .1 0 .2-.1.3-.2 0-.3-.5-.6-.5-.9s.4-.8.8-1.1c.3.2.7.5.7 1 0 .4-.5.7-.5.9 0 .1.1.2.2.3.3 0 .2-1 .9-1 .3 0 .6.3.6.6.1.2.1.4 0 .6" transform="translate(0 46.984) translate(22.98 -13.791)"/><path d="m.4 0c-.2.3-.3.7-.4 1.1 0 .4.4.6.6.9.2-.4.4-.7.3-1.1 0-.2-.4-.6-.5-.9" transform="translate(0 46.984) translate(21.717 -40.043)"/><path d="m.5 0c.2.3.4.7.5 1.1-.1.4-.4.6-.6.9-.2-.4-.5-.7-.4-1.1 0-.2.5-.7.5-.9" transform="translate(0 46.984) translate(27.828 -40.043)"/><path d="m.4.9c.2 0 .4-.2.4-.4.1-.3-.1-.5-.3-.5-.3 0-.5.2-.5.4 0 .3.2.5.4.5z" transform="translate(0 46.984) translate(18.12 -41.179)"/><path d="m.9.4c0-.2-.2-.4-.4-.4-.3 0-.5.2-.5.4 0 .2.2.4.4.4.3 0 .4-.1.5-.4" transform="translate(0 46.984) translate(17.931 -40.106)"/><path d="m.9.4c0-.2-.2-.4-.4-.4-.3 0-.5.2-.5.4 0 .2.2.4.4.4.3 0 .4-.1.5-.4" transform="translate(0 46.984) translate(18.183 -39.097)"/><path d="m.4.9c.2 0 .4-.2.4-.4.1-.3-.1-.5-.3-.5-.3 0-.5.2-.5.4 0 .3.2.5.4.5z" transform="translate(0 46.984) translate(20.455 -43.198)"/><path d="m.4.9c.2 0 .4-.2.4-.4.1-.3-.1-.5-.3-.5-.3 0-.5.2-.5.4 0 .3.2.4.4.5" transform="translate(0 46.984) translate(19.382 -42.883)"/><path d="m.4.9c.2 0 .4-.2.4-.4.1-.3-.1-.5-.3-.5-.3 0-.5.2-.5.4 0 .3.2.4.4.5" transform="translate(0 46.984) translate(18.562 -42.126)"/><path d="m.4.9c.2 0 .4-.2.4-.4.1-.3-.1-.5-.3-.5-.3 0-.5.2-.5.4 0 .3.2.4.4.5" transform="translate(0 46.984) translate(21.528 -43.072)"/><path d="m.4.9c.2 0 .4-.2.4-.4.1-.3-.1-.5-.3-.5-.3 0-.5.2-.5.4 0 .3.2.5.4.5z" transform="translate(0 46.984) translate(22.601 -42.757)"/><path d="m.4.9c.2 0 .4-.2.4-.4.1-.3-.1-.5-.3-.5-.3 0-.5.2-.5.4 0 .3.2.4.4.5" transform="translate(0 46.984) translate(23.547 -42.315)"/><path d="m0 .4c0 .2.2.4.4.4.2 0 .4-.2.4-.4.1-.2-.1-.4-.3-.4-.3 0-.5.2-.5.4" transform="translate(0 46.984) translate(31.499 -41.179)"/><path d="m.4 0c-.2 0-.4.2-.4.4 0 .2.2.4.4.4.2 0 .4-.2.4-.4.1-.2-.1-.4-.4-.4z" transform="translate(0 46.984) translate(31.625 -40.106)"/><path d="m.4 0c-.2 0-.4.2-.4.4 0 .2.2.4.4.4.2 0 .4-.2.4-.4.1-.2-.1-.4-.4-.4z" transform="translate(0 46.984) translate(31.435 -39.097)"/><path d="m.4.9c.2 0 .4-.2.4-.4.1-.3-.1-.5-.3-.5-.3 0-.5.2-.5.4 0 .3.2.5.4.5" transform="translate(0 46.984) translate(29.164 -43.198)"/><path d="m.4.9c.2 0 .4-.2.4-.4.1-.3-.1-.5-.3-.5-.3 0-.5.2-.5.4 0 .3.2.5.4.5z" transform="translate(0 46.984) translate(30.236 -42.883)"/><path d="m.4.9c.2 0 .4-.2.4-.4.1-.3-.1-.5-.3-.5-.3 0-.5.2-.5.4 0 .3.2.5.4.5z" transform="translate(0 46.984) translate(31.057 -42.126)"/><path d="m.4.9c.2 0 .4-.2.4-.4.1-.3-.1-.5-.3-.5-.3 0-.5.2-.5.4 0 .3.2.5.4.5z" transform="translate(0 46.984) translate(28.091 -43.072)"/><path d="m.4.9c.2 0 .4-.2.4-.4.1-.3-.1-.5-.3-.5-.3 0-.5.2-.5.4 0 .3.2.4.4.5" transform="translate(0 46.984) translate(27.018 -42.757)"/><path d="m0 .4c0 .2.2.4.4.4.2 0 .4-.2.4-.4.1-.2-.1-.4-.3-.4-.3 0-.5.2-.5.4" transform="translate(0 46.984) translate(26.072 -42.315)"/><path d="m0 1.9h.4v-1.8c-.1 0-.3 0-.4-.1z" transform="translate(0 46.984) translate(24.557 -41.495)"/><path d="m.4 0c-.1.1-.2.1-.4.1v1.9h.4z" transform="translate(0 46.984) translate(25.503 -41.558)"/><path d="m1 1.1v-1.1c-.5.1-.9.5-1 1.1z" transform="translate(0 46.984) translate(23.989 -44.587)"/><path d="m0 1.1h1c-.1-.6-.5-1-1-1.1z" transform="translate(0 46.984) translate(25.504 -44.587)"/><path d="m0 0c.1.6.7 1 1.3 1s1.1-.4 1.3-1z" transform="translate(0 46.984) translate(23.989 -43.009)"/><path d="m1.8 2.1c-.3-.2-.5-.5-.6-.9.4.1.7.3.9.6v-1.4c-.2.3-.5.5-.9.6.1-.4.3-.7.6-1h-1.4c.3.3.5.6.6 1-.4-.1-.8-.3-1-.6v1.5c.2-.3.6-.5.9-.6 0 .3-.2.6-.5.8z" transform="translate(0 46.984) translate(24.242 -46.922)"/><path d="m10.9 7.2c-1.5-.4-2.9-.9-4.3-1.6 0-.3-.1-.6-.4-.9-.2-.2-.5-.3-.8-.3-.1 0-.3 0-.4.1-.2-.3-.4-.5-.6-.7-.6-.7-1-1.4-1.3-2.3-.2-.5-.3-1-.4-1.5-.2.6-.7 1-1.4.9 0-.1 0-.2-.1-.3-.1.3-.4.6-1.2.3.1.6.3 1.1.5 1.7.4 1.2 1.1 2.3 1.9 3.2.3.3.5.6.8.8v.2c.1.4.3.8.8 1 .3.2.8.2 1.1-.1.7.4 1.5.7 2.3.9.9.2 1.8.4 2.7.4.8-.1 1.6-.4 2.3-.8.4-.2.6-.4.9-.7 0 0 .1 0 .1-.1-.9.1-1.7.1-2.5-.2m-10-4.7c-.1-.2-.1-.5 0-.8.1-.2.3-.4.6-.5.2-.1.5-.1.8 0 .2.1.4.3.6.6-.1.1 0 .2-.1.4 0 .1 0 .3-.1.4 0 .2-.2.4-.5.4-.2.1-.5.1-.7 0-.3 0-.5-.2-.6-.5m1.6 2.8-.3-.4c.2-.1.4-.3.6-.4-.1-.1-.3-.4-.3-.5-.1.1-.6.4-.6.4l-.3-.4 1.6-1.1.3.4c-.2.1-.4.2-.6.4.1 0 .3.3.3.4.1-.1.6-.4.6-.4l.3.4zm3.6-.1-.2-.1c-.2-.2-.5-.2-.7 0-.1.1-.1.2-.3.3l-.1.2.1.1c.3.2.3.4.3.6 0 .1-.1.1-.1.1-.2 0-.4 0-.5-.1l-.2-.1v.1s0 .1-.1.1c0 .1-.1.1-.1.1-.1.1-.1.3-.2.5v.1l.3.3.1.1c.1.1.3.2.4.3-.2.1-.5.1-.7 0-.3-.3-.5-.6-.6-.9 0-.4.2-.8.4-1.1l.1-.1-.1-.1c-.1-.1-.1-.2-.2-.4.1 0 .3.1.4.1h.1l.1-.1c.2-.2.7-.8 1.3-.8.2 0 .5.1.6.3.1.1.2.3.3.5-.3.2-.3.1-.4 0m.8 2.6c-.3 0-.6-.3-.6-.6 0-.3.3-.6.6-.6.3 0 .6.3.6.6 0 .3-.2.6-.6.6zm2.5.7c-.3 0-.5-.2-.5-.5s.2-.5.5-.5.5.2.5.5-.2.5-.5.5" transform="translate(0 46.984) translate(16.605 -23.068)"/><path d="m.9.5c0-.1 0-.1-.1-.2-.1-.2-.3-.4-.5-.2-.3 0-.3.3-.3.5 0 .1.1.2.3.3.1.1.2.1.3 0 .2-.1.3-.2.3-.4" transform="translate(0 46.984) translate(17.972 -21.351)"/><path d="m.6.1c-.1-.2-.4-.1-.5.1v.1c-.1 0-.1.2-.1.3s.1.2.2.3.2.1.3.1.2-.1.3-.2c0-.1.1-.1.1-.2 0-.3-.1-.5-.3-.5" transform="translate(0 46.984) translate(18.499 -29.379)"/><path d="m0 .1.1.1.1-.2z" transform="translate(0 46.984) translate(30.551 -30.326)"/><path d="m.4.4-.2-.4-.1.1-.1.1c.1 0 .1 0 .1.1.1 0 .2.1.3.1" transform="translate(0 46.984) translate(32.887 -26.791)"/><path d="m.1.2v-.2h-.1v.1s0 .1.1.1z" transform="translate(0 46.984) translate(33.013 -24.141)"/><path d="m.6 0c-.1 0-.2 0-.3 0-.1.1-.3.2-.3.3v.3c.1.2.3.4.6.3.1 0 .2-.1.3-.3 0-.1.1-.1.1-.2v-.1c-.2-.1-.3-.2-.4-.3" transform="translate(0 46.984) translate(22.68 -33.086)"/><path d="m17.1 14.1c-.2-.2-.4-.4-.6-.6-.3-.1-.7-.2-1-.4l-.1-.1-.8.2-.1-.6.8-.2.1-.1c.1-.1.3-.4.4-.6-.1-.3-.3-.6-.5-.9-.1-.2-.2-.4-.2-.6l-.8.4c.1.2.2.4.3.6l-.5.3-.6-1.1 1.7-.8.1.1c.1-.1.1-.1.1-.2s.1-.2.2-.2c-.3-.6-.7-1.1-1.2-1.6-.5-.6-1.1-1.1-1.8-1.6.4-.2.7-.7.7-1.1 0-.3-.1-.6-.4-.8.3-1.2.9-2.3 1.6-3.2l-1.2-.5c.3.4.3.9.3 1.3-.3-.2-.6-.5-.7-.9-.1.5-.2.9-.4 1.3.3-.2.6-.2.9-.1-.4.5-1 .7-1.5.5-.4-.1-.8-.3-.8-.6 0-.2.1-.4.3-.4h.1c.3 0 .3.4.2.6.3-.2.7-1.2.2-1.3-.4-.1-.8.4-.9.9-.1-.5-.3-1.1-.7-1-.6.2-.4 1.2-.2 1.4.1-.4.3-.6.4-.5.1 0 .3.1.3.4-.1.3-.5.5-1 .5s-1.4-.1-1.5-1.1c.4.1.8.3 1.1.6-.1-.5-.1-1.1 0-1.6-.3.3-.6.6-1.1.6.2-.4.5-.9.9-1.1h-2.1c.4.3.7.7.9 1.1-.4-.1-.8-.3-1-.6 0 .6 0 1.1-.1 1.6.3-.3.7-.5 1.1-.6-.1.7-.7 1.2-1.4 1.2-.5 0-1-.2-1-.5-.1-.2 0-.4.2-.5h.1c.2 0 .4.2.4.5.1-.2.3-1.3-.2-1.3-.4 0-.6.5-.7 1-.2-.4-.5-1-1-.9s-.2 1.1.2 1.3c-.1-.2-.1-.5.2-.5.2 0 .4.2.4.4 0 .3-.4.6-.8.6-.5.1-1.1-.1-1.5-.5.3-.1.7-.1 1 .1-.2-.5-.3-.9-.4-1.4-.1.4-.4.7-.7.9-.1-.5 0-.9.2-1.3l-1.2.5c.7 1 1.3 2.1 1.6 3.3-.2.1-.4.4-.4.7 0 .5.3.9.7 1.1-.6.5-1.2 1-1.7 1.6-.8.9-1.5 2-1.9 3.2 0 0-.1.1-.1.2l.4.4v-.1c.1-.2.2-.3.4-.4l.6.3c-.3.2-.6.4-.5.5.1 0 .1-.1.2-.1.2-.1.4-.4.8-.2.1.1.2.2.3.3.1.2.1.3 0 .5s-.2.4-.4.5l-.6-.2c.2-.1.3-.2.4-.4v-.1c-.1 0-.2.1-.3.1-.1.1-.3.2-.4.3.2.3.4.6.4.9 0 .4.1.8.4 1.1.4.6 0 .5.4 1.2v-.6h5.9v6.5c-.3 0-.5.1-.7.3.7.3 1.4.5 2 .8 0-.3.2-.6.4-.9 0 0-.9-.1-1.4-.1v-6.5h5.8c0 .9-.2 1.8-.5 2.6s-.8 1.6-1.3 2.3c-.5.6-1.2 1.1-1.9 1.5-.2.1-.3.4-.4.6s-.1.4-.2.6c.3.1.3.1.6.2 2 .5 2.6.4 2.7.3.5-.4.9-.8 1.3-1.2.8-.9 1.5-2 1.9-3.2.5-1.3.7-2.6.7-3.9.1-.4.1-.7.1-1m-2.8-6 .3.3-1 2-.4-.5.2-.4-.4-.5-.3.1-.4-.4zm-1.3-1.3.3.3-1.2 1.6-.4-.3.6-.8-.6.1-.1-.6-.6.8-.5-.3 1.2-1.6.4.2.1.8zm-9.6-1.7c0-1.1 3.2-1.2 4.8-1.2s4.8.1 4.8 1.2c0 .3-.2.6-.6.8-1.2-.8-2.7-1.2-4.1-1.1-1.5-.1-2.9.3-4.1 1.1-.5-.2-.8-.5-.8-.8m6.8.5-.4 2-.5-.2.4-2zm-2.8 1.4-.3.5c-.3.1-.7.1-1-.1-.4.1-.8-.2-1-.6-.1-.2-.1-.5 0-.7.1-.3.4-.5.6-.6.5-.2 1 0 1.2.5.1.1.1.2.1.3 0 .2-.1.4-.2.6.2.2.4.2.6.1m-3.8-.2.4.3-.4.4c.1.1.9.9.9.9l-.4.4-.9-.9-.4.4-.3-.4zm-1.4 1.3 1.4 1.1-.3.5-1.4-1.1zm-.1 3.1c-.2.1-.5.1-.7-.1-.2-.1-.3-.3-.4-.6-.1-.2 0-.5.1-.7s.3-.4.6-.5c.2-.1.5-.1.7.1.2.1.4.3.4.6 0 .1.1.2.1.3 0 .2-.1.3-.1.5-.2.1-.4.3-.7.4m.1 3.5c0-.9.2-1.8.5-2.6s.8-1.6 1.3-2.3c.5-.6 1.2-1.1 1.9-1.5.7-.3 1.5-.5 2.2-.5v6.9zm6-7.4c-.4 0-.8-.3-.8-.7v-.1-1.1h.6v1.1.3c.1.1.1.1.3.1s.2-.1.3-.1c.1-.1.1-.2.1-.3v-1.1h.6v1.1c-.1.3-.2.5-.3.6-.3.2-.5.2-.8.2m.3 7.4v-6.9c.7 0 1.4.2 2.1.6s1.4.9 1.9 1.5c.6.7 1 1.4 1.3 2.3.3.8.5 1.7.5 2.6zm4.8 7.8-.4-.4.5-.5-.1-.1-.4.4-.4-.4.4-.4-.1-.1-.5.5-.4-.4.9-.9 1.4 1.3zm1.6-1.8c-.1.1-.3.2-.4.3l-.6-.4c.6-.2.6-.3.6-.4-.1 0-.2 0-.3.1-.2.2-.6.2-.8.1-.3-.2-.3-.5-.2-.7 0 0 0 0 .1-.1.1-.2.3-.3.6-.4l.6.4h-.1c-.2 0-.4.1-.5.3l-.1.1c.1.1.2-.1.3-.1.2-.2.5-.2.8-.1.2.1.3.2.3.4v.1c-.2.1-.2.3-.3.4m1.1-2.3-1.2.4.9.4-.2.5-1.8-.8.2-.4 1.2-.4-.9-.4.2-.5 1.8.7zm.3-.9-.5-.1.1-.6h-.1l-.1.6-.5-.1.1-.6h-.1l-.1.7-.5-.1.3-1.3 1.9.4zm.4-2.4c0 .2-.1.4-.2.5s-.3.2-.4.2c-.2 0-.3-.1-.4-.2s-.2-.3-.2-.5v-.1h-.7v-.6l2 .1z" transform="translate(0 46.984) translate(17.048 -39.16)"/><path d="m.1.1s-.1.1-.1.1c.2.2.3.5.5.8.1 0 .1 0 .1-.1.5-.2.4-.5.3-.7-.2-.3-.5-.2-.8-.1" transform="translate(0 46.984) translate(9.791 -10.677)"/><path d="m.3.4c.1 0 .1 0 0 0 .1-.1.1-.1 0 0l.1-.1c0-.1 0-.1-.1-.1l-.2-.2-.1.3s.1.1.1.1z" transform="translate(0 46.984) translate(36.042 -13.413)"/><path d="m.1 1c.4.1.6.1.8-.3.1-.3 0-.5-.4-.6l-.2-.1c0 .1-.3.9-.3.9 0 .1.1.1.1.1" transform="translate(0 46.984) translate(33.644 -14.36)"/><path d="m.3 1c.1.1.3.1.4 0 .2 0 .3-.1.3-.2.1-.1.1-.2.1-.4 0-.1-.1-.2-.3-.3-.1-.1-.2-.1-.4-.1-.1 0-.2.1-.3.3-.1.1-.1.2-.1.4z" transform="translate(0 46.984) translate(37.342 -12.177)"/><path d="m.9.1c-.1-.1-.2-.1-.3-.1-.2 0-.4.1-.5.2s-.1.2-.1.4c0 .1.1.3.1.4.1 0 .3.1.4.1.2 0 .3-.1.4-.2s.2-.2.2-.4c0-.1 0-.3-.2-.4z" transform="translate(0 46.984) translate(27.081 -6.913)"/><path d="m36.4 6.9c1.1 0 2.1-1.4 3.5-2-3.5 1-8.3-4.9-11.6-4.9-1.1-.1-2.1.6-2.5 1.6-.6 1.4-1.3 1.8-1.3 2.4 0 .5.4.9 1.3 1.3.5.3 1.1.4 1 .9-2.2.8-4.5 1.2-6.9 1.1-2.3.1-4.7-.3-6.9-1.1 0-.5.5-.6 1-.9.8-.4 1.3-.8 1.3-1.3 0-.6-.6-1-1.2-2.4-.4-1-1.4-1.7-2.5-1.6-3.3 0-8.1 5.9-11.6 4.9 1.4.6 2.3 2 3.5 2 2.8 0 6.1-4.2 9.2-4.2h.1c-.7.9-1.7 1.1-1.7 2 0 .6.6 1 .9 1.8.2.5.4 1.1.5 1.6.2.6.6 2.3 7.4 2.3s7.3-1.7 7.5-2.3c.1-.6.3-1.1.5-1.6.4-.8.9-1.2.9-1.8 0-.9-1-1.1-1.7-2h.1c3.2 0 6.4 4.2 9.2 4.2m.5-2-.3.5c-.2-.1-.4-.2-.6-.3-.3.4-.5.9-.8 1.3l-.6-.2s.6-.9.8-1.3c-.2-.1-.4-.2-.6-.3l.4-.6c.5.3 1.3.7 1.7.9m-1.9-1-1.1 1.8-.5-.3 1.1-1.8zm-2.6-1.3c.3-.1.6 0 .9.1.3.2.5.4.6.7 0 .1.1.2.1.3 0 .2-.1.4-.2.6-.2.3-.4.4-.7.5s-.6 0-.9-.1c-.2-.1-.4-.4-.5-.6-.1-.3 0-.6.1-.8 0-.4.3-.7.6-.7m-1-1c.1.1.2.2.3.3.1.2.1.4 0 .6-.1.1-.2.2-.3.3h-.2c0 .1 0 .2.1.3 0 .3 0 .6.1.9-.2-.1-.4-.3-.6-.4l-.1-.6c0-.3 0-.3-.1-.4-.1.1-.4.7-.4.7l-.6-.3 1.1-1.8c.2.1.5.2.7.4m-3-1.3.8.2c.5.1.9.6.8 1.1 0 .1 0 .2-.1.2-.2.6-.8.9-1.4.7h-.1l-.7-.2zm-23 5.8-.6.3-1.1-1.9.6-.4c.2 0 .5-.1.7-.1s.3 0 .5.1.3.2.4.4c.4.4.3 1-.1 1.4-.2.1-.3.1-.4.2m1.7-1-1.2-1.8.5-.3 1.1 1.8zm1.2-.8-1.2-1.8 1.2-.8.3.5-.6.4c0 .1 0 .2.1.2l.6-.4.3.5-.6.4c.1.1.1.1.1.2l.7-.4.3.5zm2.4-1.3c-.4.2-.9.1-1.1-.3 0 0-.1-.1-.1-.2l-.5-1.1.6-.3.4 1.2c.1.3.3.3.4.2.3-.1.3-.3.2-.4l-.5-1.2.6-.2.5 1.2c.2.3.2.8-.5 1.1m2.2 3.2c-.8-.4-1.3-.9-1.3-1.5 0-.8 1.3-1.3 1.8-2 .8.1 1.8.5 1.8 1.2 0 .8-2.6 1.2-2.3 2.3m1.3 3.1-.1-2.1c.5.2 1 .3 1.5.4v.6c-.3-.2-.6-.2-.9-.3v.2c.1 0 .8.2.8.2v.6c-.3 0-.5-.1-.8-.2v.3c.2.1.5.1.8.2v.6c-.4-.2-1-.3-1.3-.5m3.4-1c-.2 0-.4-.1-.6-.1v1.6l-.6-.1v-1.5c-.2 0-.4-.1-.6-.1v-.6c.6.1 1.3.2 1.9.3v.5zm3.4 1.7h-.6v-1.2c-.1.2-.5.6-.5.6s-.4-.4-.5-.6v1.2h-.6v-2.2h.5s.5.6.6.8c.1-.1.6-.8.6-.8h.5zm2.3-.3c-.3.2-.6.3-.9.3s-.6-.1-.8-.3-.3-.5-.3-.8.1-.6.3-.8.5-.3.8-.4c.3 0 .6.1.9.3.2.2.4.5.4.8-.1.3-.2.6-.4.9m2.5-.4-.4.2s-.8-.8-.9-.9c0 .3-.1 1.2-.1 1.2l-.6.1.1-2.3.4-.1.9.9c0-.3.1-1.1.1-1.1l.7-.2zm2.7-4.6c0 .5-.4 1-1.3 1.5.3-1.1-2.3-1.4-2.3-2.2 0-.7 1-1.1 1.8-1.2.4.6 1.8 1.1 1.8 1.9" transform="translate(0 46.984) translate(5.247 -15.307)"/><path d="m54.1-4.8h2.5v-42.2h-2.5z" transform="translate(0 46.984)"/></g></svg>